<mxfile host="app.diagrams.net" modified="2024-03-09T04:11:59.955Z" agent="Mozilla/5.0 (Windows NT 10.0; Win64; x64) AppleWebKit/537.36 (KHTML, like Gecko) Chrome/122.0.0.0 Safari/537.36" etag="To0FZDNvqKiOOkWu0s9N" version="23.1.8" type="github">
  <diagram name="Page-1" id="UKqcl2rdBT8ylv2GN5A6">
    <mxGraphModel dx="712" dy="736" grid="1" gridSize="10" guides="1" tooltips="1" connect="1" arrows="1" fold="1" page="1" pageScale="1" pageWidth="850" pageHeight="1100" math="0" shadow="0">
      <root>
        <mxCell id="0" />
        <mxCell id="1" parent="0" />
        <mxCell id="epYkVriu9LJ3dBHso4Ez-11" style="edgeStyle=orthogonalEdgeStyle;rounded=0;orthogonalLoop=1;jettySize=auto;html=1;entryX=0.5;entryY=0;entryDx=0;entryDy=0;" edge="1" parent="1" source="epYkVriu9LJ3dBHso4Ez-1" target="epYkVriu9LJ3dBHso4Ez-2">
          <mxGeometry relative="1" as="geometry" />
        </mxCell>
        <mxCell id="epYkVriu9LJ3dBHso4Ez-1" value="&lt;font style=&quot;font-size: 14px;&quot;&gt;Start&lt;/font&gt;" style="ellipse;whiteSpace=wrap;html=1;" vertex="1" parent="1">
          <mxGeometry x="60" y="10" width="120" height="80" as="geometry" />
        </mxCell>
        <mxCell id="epYkVriu9LJ3dBHso4Ez-56" style="edgeStyle=orthogonalEdgeStyle;rounded=0;orthogonalLoop=1;jettySize=auto;html=1;entryX=0.5;entryY=0;entryDx=0;entryDy=0;" edge="1" parent="1" source="epYkVriu9LJ3dBHso4Ez-2" target="epYkVriu9LJ3dBHso4Ez-55">
          <mxGeometry relative="1" as="geometry" />
        </mxCell>
        <mxCell id="epYkVriu9LJ3dBHso4Ez-2" value="&lt;font style=&quot;font-size: 14px;&quot;&gt;create array that can hold 10 words&lt;/font&gt;" style="whiteSpace=wrap;html=1;aspect=fixed;" vertex="1" parent="1">
          <mxGeometry x="65" y="120" width="110" height="110" as="geometry" />
        </mxCell>
        <mxCell id="epYkVriu9LJ3dBHso4Ez-13" style="edgeStyle=orthogonalEdgeStyle;rounded=0;orthogonalLoop=1;jettySize=auto;html=1;entryX=0.5;entryY=0;entryDx=0;entryDy=0;" edge="1" parent="1" source="epYkVriu9LJ3dBHso4Ez-3" target="epYkVriu9LJ3dBHso4Ez-5">
          <mxGeometry relative="1" as="geometry" />
        </mxCell>
        <mxCell id="epYkVriu9LJ3dBHso4Ez-3" value="&lt;font style=&quot;font-size: 14px;&quot;&gt;read switch data&lt;/font&gt;" style="shape=parallelogram;perimeter=parallelogramPerimeter;whiteSpace=wrap;html=1;fixedSize=1;" vertex="1" parent="1">
          <mxGeometry x="50" y="360" width="140" height="80" as="geometry" />
        </mxCell>
        <mxCell id="epYkVriu9LJ3dBHso4Ez-14" style="edgeStyle=orthogonalEdgeStyle;rounded=0;orthogonalLoop=1;jettySize=auto;html=1;entryX=0.5;entryY=0;entryDx=0;entryDy=0;" edge="1" parent="1" source="epYkVriu9LJ3dBHso4Ez-5" target="epYkVriu9LJ3dBHso4Ez-6">
          <mxGeometry relative="1" as="geometry" />
        </mxCell>
        <mxCell id="epYkVriu9LJ3dBHso4Ez-5" value="&lt;font style=&quot;font-size: 14px;&quot;&gt;save switch data to array&lt;/font&gt;" style="rounded=0;whiteSpace=wrap;html=1;" vertex="1" parent="1">
          <mxGeometry x="60" y="470" width="120" height="60" as="geometry" />
        </mxCell>
        <mxCell id="epYkVriu9LJ3dBHso4Ez-15" style="edgeStyle=orthogonalEdgeStyle;rounded=0;orthogonalLoop=1;jettySize=auto;html=1;entryX=0.5;entryY=0;entryDx=0;entryDy=0;" edge="1" parent="1" source="epYkVriu9LJ3dBHso4Ez-6" target="epYkVriu9LJ3dBHso4Ez-7">
          <mxGeometry relative="1" as="geometry" />
        </mxCell>
        <mxCell id="epYkVriu9LJ3dBHso4Ez-6" value="&lt;span style=&quot;font-size: 14px;&quot;&gt;end of array&lt;/span&gt;" style="rhombus;whiteSpace=wrap;html=1;" vertex="1" parent="1">
          <mxGeometry x="65" y="570" width="110" height="110" as="geometry" />
        </mxCell>
        <mxCell id="epYkVriu9LJ3dBHso4Ez-16" style="edgeStyle=orthogonalEdgeStyle;rounded=0;orthogonalLoop=1;jettySize=auto;html=1;entryX=0.5;entryY=0;entryDx=0;entryDy=0;" edge="1" parent="1" source="epYkVriu9LJ3dBHso4Ez-7" target="epYkVriu9LJ3dBHso4Ez-9">
          <mxGeometry relative="1" as="geometry" />
        </mxCell>
        <mxCell id="epYkVriu9LJ3dBHso4Ez-7" value="&lt;font style=&quot;font-size: 14px;&quot;&gt;call subroutine&lt;/font&gt;" style="shape=process;whiteSpace=wrap;html=1;backgroundOutline=1;" vertex="1" parent="1">
          <mxGeometry x="60" y="720" width="120" height="60" as="geometry" />
        </mxCell>
        <mxCell id="epYkVriu9LJ3dBHso4Ez-39" style="edgeStyle=orthogonalEdgeStyle;rounded=0;orthogonalLoop=1;jettySize=auto;html=1;entryX=0.5;entryY=0;entryDx=0;entryDy=0;" edge="1" parent="1" source="epYkVriu9LJ3dBHso4Ez-8" target="epYkVriu9LJ3dBHso4Ez-26">
          <mxGeometry relative="1" as="geometry" />
        </mxCell>
        <mxCell id="epYkVriu9LJ3dBHso4Ez-8" value="&lt;font style=&quot;font-size: 14px;&quot;&gt;subroutine&lt;/font&gt;" style="ellipse;whiteSpace=wrap;html=1;" vertex="1" parent="1">
          <mxGeometry x="500" y="50" width="120" height="80" as="geometry" />
        </mxCell>
        <mxCell id="epYkVriu9LJ3dBHso4Ez-17" style="edgeStyle=orthogonalEdgeStyle;rounded=0;orthogonalLoop=1;jettySize=auto;html=1;entryX=0.5;entryY=0;entryDx=0;entryDy=0;" edge="1" parent="1" source="epYkVriu9LJ3dBHso4Ez-9" target="epYkVriu9LJ3dBHso4Ez-10">
          <mxGeometry relative="1" as="geometry" />
        </mxCell>
        <mxCell id="epYkVriu9LJ3dBHso4Ez-9" value="&lt;font style=&quot;font-size: 14px;&quot;&gt;output to LEDs&lt;/font&gt;" style="shape=parallelogram;perimeter=parallelogramPerimeter;whiteSpace=wrap;html=1;fixedSize=1;" vertex="1" parent="1">
          <mxGeometry x="60" y="830" width="120" height="60" as="geometry" />
        </mxCell>
        <mxCell id="epYkVriu9LJ3dBHso4Ez-10" value="&lt;font style=&quot;font-size: 14px;&quot;&gt;End&lt;/font&gt;" style="ellipse;whiteSpace=wrap;html=1;" vertex="1" parent="1">
          <mxGeometry x="60" y="940" width="120" height="80" as="geometry" />
        </mxCell>
        <mxCell id="epYkVriu9LJ3dBHso4Ez-22" value="&lt;font style=&quot;font-size: 14px;&quot;&gt;True&lt;/font&gt;" style="text;html=1;align=center;verticalAlign=middle;whiteSpace=wrap;rounded=0;" vertex="1" parent="1">
          <mxGeometry x="130" y="680" width="60" height="30" as="geometry" />
        </mxCell>
        <mxCell id="epYkVriu9LJ3dBHso4Ez-63" style="edgeStyle=orthogonalEdgeStyle;rounded=0;orthogonalLoop=1;jettySize=auto;html=1;entryX=0.5;entryY=0;entryDx=0;entryDy=0;" edge="1" parent="1" source="epYkVriu9LJ3dBHso4Ez-26" target="epYkVriu9LJ3dBHso4Ez-33">
          <mxGeometry relative="1" as="geometry" />
        </mxCell>
        <mxCell id="epYkVriu9LJ3dBHso4Ez-26" value="&lt;font style=&quot;font-size: 14px;&quot;&gt;access array values&amp;nbsp;&lt;/font&gt;" style="shape=parallelogram;perimeter=parallelogramPerimeter;whiteSpace=wrap;html=1;fixedSize=1;" vertex="1" parent="1">
          <mxGeometry x="485" y="170" width="150" height="80" as="geometry" />
        </mxCell>
        <mxCell id="epYkVriu9LJ3dBHso4Ez-33" value="&lt;font style=&quot;font-size: 14px;&quot;&gt;initialize counter, 10th spot of stack, and current and comparing array values&lt;/font&gt;" style="rounded=0;whiteSpace=wrap;html=1;" vertex="1" parent="1">
          <mxGeometry x="485" y="290" width="150" height="90" as="geometry" />
        </mxCell>
        <mxCell id="epYkVriu9LJ3dBHso4Ez-57" style="edgeStyle=orthogonalEdgeStyle;rounded=0;orthogonalLoop=1;jettySize=auto;html=1;entryX=0.5;entryY=0;entryDx=0;entryDy=0;" edge="1" parent="1" source="epYkVriu9LJ3dBHso4Ez-55" target="epYkVriu9LJ3dBHso4Ez-3">
          <mxGeometry relative="1" as="geometry" />
        </mxCell>
        <mxCell id="epYkVriu9LJ3dBHso4Ez-55" value="&lt;font style=&quot;font-size: 14px;&quot;&gt;initialize switch, stack pointer, top of stack, and array address&lt;/font&gt;" style="rounded=0;whiteSpace=wrap;html=1;" vertex="1" parent="1">
          <mxGeometry x="40" y="250" width="160" height="90" as="geometry" />
        </mxCell>
        <mxCell id="epYkVriu9LJ3dBHso4Ez-59" value="" style="endArrow=none;html=1;rounded=0;exitX=1;exitY=0.5;exitDx=0;exitDy=0;" edge="1" parent="1" source="epYkVriu9LJ3dBHso4Ez-6">
          <mxGeometry width="50" height="50" relative="1" as="geometry">
            <mxPoint x="175" y="620" as="sourcePoint" />
            <mxPoint x="250" y="560" as="targetPoint" />
          </mxGeometry>
        </mxCell>
        <mxCell id="epYkVriu9LJ3dBHso4Ez-60" value="" style="endArrow=classic;html=1;rounded=0;entryX=1;entryY=0.5;entryDx=0;entryDy=0;" edge="1" parent="1" target="epYkVriu9LJ3dBHso4Ez-5">
          <mxGeometry width="50" height="50" relative="1" as="geometry">
            <mxPoint x="250" y="560" as="sourcePoint" />
            <mxPoint x="400" y="530" as="targetPoint" />
          </mxGeometry>
        </mxCell>
        <mxCell id="epYkVriu9LJ3dBHso4Ez-62" value="&lt;font style=&quot;font-size: 14px;&quot;&gt;False&lt;/font&gt;" style="text;html=1;align=center;verticalAlign=middle;whiteSpace=wrap;rounded=0;" vertex="1" parent="1">
          <mxGeometry x="220" y="510" width="60" height="30" as="geometry" />
        </mxCell>
      </root>
    </mxGraphModel>
  </diagram>
</mxfile>
